<svg xmlns="http://www.w3.org/2000/svg" version="1.1" xmlns:xlink="http://www.w3.org/1999/xlink" xmlns:svgjs="http://svgjs.com/svgjs" width="1440" height="560" preserveAspectRatio="none" viewBox="0 0 1440 560">
    <g mask="url(&quot;#SvgjsMask1015&quot;)" fill="none">
        <rect width="1440" height="560" x="0" y="0" fill="url(#SvgjsLinearGradient1016)"></rect>
        <path d="M1464 560L0 560 L0 292.45Q84.16 256.61, 120 340.77Q191.81 292.58, 240 364.4Q306.38 310.78, 360 377.17Q387.33 284.5, 480 311.84Q527.86 239.7, 600 287.56Q659.57 275.13, 672 334.69Q693.01 283.7, 744 304.71Q774.37 263.08, 816 293.45Q890.01 247.47, 936 321.48Q991.7 305.18, 1008 360.88Q1012.76 293.64, 1080 298.41Q1108.28 254.69, 1152 282.96Q1201.18 260.14, 1224 309.32Q1294.37 259.69, 1344 330.05Q1382.47 248.52, 1464 286.99z" fill="#182f5d"></path>
        <path d="M1560 560L0 560 L0 437.9Q16.52 382.42, 72 398.95Q111.17 318.12, 192 357.29Q240.16 333.45, 264 381.61Q340.5 338.11, 384 414.6Q425.22 383.82, 456 425.04Q472.8 369.84, 528 386.64Q577.49 364.13, 600 413.61Q604.21 345.82, 672 350.03Q738.45 344.48, 744 410.92Q780.24 327.16, 864 363.4Q955.96 335.36, 984 427.31Q1004.1 375.41, 1056 395.51Q1078.21 345.73, 1128 367.94Q1212.8 332.74, 1248 417.54Q1291.13 340.67, 1368 383.79Q1409.02 352.81, 1440 393.84Q1507.74 341.57, 1560 409.31z" fill="#25467d"></path>
        <path d="M1512 560L0 560 L0 483.37Q50.23 413.6, 120 463.82Q159.24 383.06, 240 422.3Q311.72 374.02, 360 445.75Q422.9 436.65, 432 499.55Q433.06 428.61, 504 429.67Q550.71 404.38, 576 451.1Q659.39 414.49, 696 497.88Q697.09 426.97, 768 428.05Q824.3 412.35, 840 468.64Q906.72 415.36, 960 482.08Q1005.64 407.73, 1080 453.37Q1124.74 378.11, 1200 422.85Q1283.49 386.35, 1320 469.84Q1389.7 419.54, 1440 489.25Q1482.38 459.63, 1512 502.01z" fill="#356cb1"></path>
        <path d="M1464 560L0 560 L0 544.71Q36.41 509.12, 72 545.53Q141.96 495.49, 192 565.45Q234.37 535.82, 264 578.18Q303.44 497.62, 384 537.05Q437.83 470.88, 504 524.7Q525.93 474.63, 576 496.56Q658.95 459.51, 696 542.46Q774.29 500.75, 816 579.04Q838.64 481.68, 936 504.32Q978.12 474.43, 1008 516.55Q1085.56 474.11, 1128 551.66Q1181.15 532.81, 1200 585.96Q1228.34 542.3, 1272 570.63Q1317.07 495.7, 1392 540.78Q1410.31 487.09, 1464 505.4z" fill="rgba(180, 180, 180, 1)"></path>
    </g>
    <defs>
        <mask id="SvgjsMask1015">
            <rect width="1440" height="560" fill="#ffffff"></rect>
        </mask>
        <linearGradient x1="15.28%" y1="-39.29%" x2="84.72%" y2="139.29%" gradientUnits="userSpaceOnUse" id="SvgjsLinearGradient1016">
            <stop stop-color="#0e2a47" offset="0"></stop>
            <stop stop-color="#00459e" offset="1"></stop>
        </linearGradient>
    </defs>
</svg>