<svg xmlns="http://www.w3.org/2000/svg" version="1.1" xmlns:xlink="http://www.w3.org/1999/xlink" xmlns:svgjs="http://svgjs.com/svgjs" width="1440" height="560" preserveAspectRatio="none" viewBox="0 0 1440 560">
    <g mask="url(&quot;#SvgjsMask1217&quot;)" fill="none">
        <rect width="1440" height="560" x="0" y="0" fill="url(#SvgjsLinearGradient1218)"></rect>
        <path d="M 0,8 C 28.8,55.6 86.4,230 144,246 C 201.6,262 230.4,88 288,88 C 345.6,88 374.4,260 432,246 C 489.6,232 518.4,14.8 576,18 C 633.6,21.2 662.4,255.6 720,262 C 777.6,268.4 806.4,59.6 864,50 C 921.6,40.4 950.4,215.2 1008,214 C 1065.6,212.8 1094.4,36.6 1152,44 C 1209.6,51.4 1238.4,242 1296,251 C 1353.6,260 1411.2,121.4 1440,89L1440 560L0 560z" fill="#184a7e"></path>
        <path d="M 0,415 C 32,418.4 96,455 160,432 C 224,409 256,279 320,300 C 384,321 416,537.4 480,537 C 544,536.6 576,297.6 640,298 C 704,298.4 736,520 800,539 C 864,558 896,408.4 960,393 C 1024,377.6 1056,478.6 1120,462 C 1184,445.4 1216,290.6 1280,310 C 1344,329.4 1408,509.2 1440,559L1440 560L0 560z" fill="#2264ab"></path>
    </g>
    <defs>
        <mask id="SvgjsMask1217">
            <rect width="1440" height="560" fill="#ffffff"></rect>
        </mask>
        <linearGradient x1="15.28%" y1="-39.29%" x2="84.72%" y2="139.29%" gradientUnits="userSpaceOnUse" id="SvgjsLinearGradient1218">
            <stop stop-color="#0e2a47" offset="0"></stop>
            <stop stop-color="rgba(39, 118, 151, 1)" offset="1"></stop>
        </linearGradient>
    </defs>
</svg>